<mxfile host="app.diagrams.net" modified="2024-03-11T09:03:54.626Z" agent="Mozilla/5.0 (Windows NT 10.0; Win64; x64) AppleWebKit/537.36 (KHTML, like Gecko) Chrome/122.0.0.0 Safari/537.36 Edg/122.0.0.0" version="24.0.4" etag="7wzjiYT8Ia4x_xOYSyz4" type="github">
  <diagram name="Page-1" id="cFtdVzuxdZotoGRTTgj_">
    <mxGraphModel>
      <root>
        <mxCell id="0" />
        <mxCell id="1" parent="0" />
      </root>
    </mxGraphModel>
  </diagram>
</mxfile>
